<svg width="20" height="20" viewBox="0 0 20 20" fill="none" xmlns="http://www.w3.org/2000/svg">
<g clip-path="url(#clip0_2005_1777)">
<path d="M9.99609 4.72266L10.3516 4.10938C10.5703 3.72656 11.0586 3.59766 11.4414 3.81641C11.8242 4.03516 11.9531 4.52344 11.7344 4.90625L8.31641 10.8242H10.7891C11.5898 10.8242 12.0391 11.7656 11.6914 12.418H4.44531C4.00391 12.418 3.64844 12.0625 3.64844 11.6211C3.64844 11.1797 4.00391 10.8242 4.44531 10.8242H6.47656L9.07812 6.31641L8.26562 4.90625C8.04688 4.52344 8.17578 4.03906 8.55859 3.81641C8.94141 3.59766 9.42578 3.72656 9.64844 4.10938L9.99609 4.72266ZM6.92188 13.2383L6.15625 14.5664C5.9375 14.9492 5.44922 15.0781 5.06641 14.8594C4.68359 14.6406 4.55469 14.1523 4.77344 13.7695L5.34375 12.7852C5.98438 12.5859 6.50781 12.7383 6.92188 13.2383ZM13.5195 10.8281H15.5938C16.0352 10.8281 16.3906 11.1836 16.3906 11.625C16.3906 12.0664 16.0352 12.4219 15.5938 12.4219H14.4414L15.2188 13.7695C15.4375 14.1523 15.3086 14.6367 14.9258 14.8594C14.543 15.0781 14.0586 14.9492 13.8359 14.5664C12.5273 12.2969 11.543 10.5977 10.8906 9.46484C10.2227 8.3125 10.6992 7.15625 11.1719 6.76562C11.6953 7.66406 12.4766 9.01953 13.5195 10.8281ZM10 0.3125C4.64844 0.3125 0.3125 4.64844 0.3125 10C0.3125 15.3516 4.64844 19.6875 10 19.6875C15.3516 19.6875 19.6875 15.3516 19.6875 10C19.6875 4.64844 15.3516 0.3125 10 0.3125ZM18.4375 10C18.4375 14.6367 14.6836 18.4375 10 18.4375C5.36328 18.4375 1.5625 14.6836 1.5625 10C1.5625 5.36328 5.31641 1.5625 10 1.5625C14.6367 1.5625 18.4375 5.31641 18.4375 10Z" fill="white"/>
</g>
<defs>
<clipPath id="clip0_2005_1777">
<rect width="20" height="20" fill="white"/>
</clipPath>
</defs>
</svg>
