<svg width="16" height="16" viewBox="0 0 16 16" fill="none" xmlns="http://www.w3.org/2000/svg">
<g clip-path="url(#clip0_247_347)">
<path d="M15.5921 7.29722L8.70263 0.407975C8.30613 0.0112251 7.66263 0.0112251 7.2655 0.407975L5.835 1.83873L7.64975 3.65348C8.07163 3.5111 8.55513 3.6066 8.89125 3.94273C9.22913 4.28098 9.32388 4.7686 9.178 5.19185L10.927 6.94098C11.3501 6.7951 11.8385 6.88935 12.1763 7.22785C12.6488 7.69998 12.6488 8.46535 12.1763 8.93773C12.064 9.05006 11.9306 9.13918 11.7839 9.19998C11.6372 9.26078 11.4799 9.29208 11.3211 9.29208C11.1622 9.29208 11.005 9.26078 10.8582 9.19998C10.7115 9.13918 10.5782 9.05006 10.4659 8.93773C10.2972 8.76889 10.1822 8.55396 10.1354 8.31995C10.0886 8.08595 10.112 7.84333 10.2028 7.6226L8.57175 5.9916L8.5715 10.2842C8.68985 10.3425 8.79789 10.4197 8.89138 10.5127C9.36363 10.9848 9.36363 11.75 8.89138 12.2231C8.419 12.6952 7.65338 12.6952 7.1815 12.2231C6.70925 11.7501 6.70925 10.985 7.1815 10.5127C7.29475 10.3995 7.4293 10.3099 7.57738 10.249V5.9166C7.42913 5.85594 7.29453 5.76622 7.1815 5.65273C6.82375 5.29523 6.73763 4.77023 6.92113 4.33073L5.132 2.5416L0.408002 7.26535C0.217416 7.456 0.110352 7.71453 0.110352 7.9841C0.110352 8.25367 0.217416 8.51221 0.408002 8.70285L7.29763 15.5921C7.69438 15.9889 8.33763 15.9889 8.735 15.5921L15.5923 8.73485C15.7828 8.54415 15.8898 8.28559 15.8898 8.01601C15.8898 7.74643 15.7827 7.48789 15.5921 7.29722Z" fill="#F34F29"/>
</g>
<defs>
<clipPath id="clip0_247_347">
<rect width="16" height="16" fill="white"/>
</clipPath>
</defs>
</svg>
