<svg width="16" height="16" viewBox="0 0 16 16" fill="none" xmlns="http://www.w3.org/2000/svg">
<path d="M2.95089 13.6005L1.82739 1H14.1724L13.0474 13.5985L7.99239 15L2.95089 13.6005Z" fill="#E44F26"/>
<path d="M8 13.929L12.085 12.7965L13.046 2.03052H8V13.929Z" fill="#F1662A"/>
<path d="M8 6.7035H5.955L5.814 5.121H8V3.5755H4.125L4.162 3.9905L4.5415 8.249H8V6.7035ZM8 10.717L7.993 10.719L6.272 10.2545L6.162 9.022H4.6105L4.827 11.448L7.993 12.327L8 12.325V10.717Z" fill="#EBEBEB"/>
<path d="M7.99438 6.7035V8.249H9.89738L9.71838 10.2535L7.99438 10.7185V12.3265L11.1629 11.448L11.1859 11.187L11.5489 7.1185L11.5869 6.7035H7.99438ZM7.99438 3.5755V5.121H11.7274L11.7584 4.774L11.8289 3.9905L11.8659 3.5755H7.99438Z" fill="white"/>
</svg>
