<svg width="16" height="17" viewBox="0 0 16 17" fill="none" xmlns="http://www.w3.org/2000/svg">
<path d="M0 1.04326V15.9562C9.99086e-05 15.9886 0.00974991 16.0202 0.02774 16.0471C0.04573 16.074 0.0712592 16.0949 0.101126 16.1074C0.130994 16.1198 0.163869 16.1232 0.195631 16.117C0.227392 16.1108 0.256625 16.0954 0.279665 16.0727L8.04464 8.50011L0.279665 0.926765C0.256625 0.904049 0.227392 0.888641 0.195631 0.882473C0.163869 0.876305 0.130994 0.879652 0.101126 0.892093C0.0712592 0.904534 0.04573 0.925516 0.02774 0.952409C0.00974991 0.979301 9.99086e-05 1.01091 0 1.04326ZM11.3004 5.38851L1.56415 0.0243989L1.55808 0.0209837C1.39036 -0.0700878 1.23098 0.156832 1.36835 0.288886L9.00051 7.58674L11.3004 5.38851ZM1.36911 16.7113C1.23098 16.8434 1.39036 17.0703 1.55884 16.9792L1.56491 16.9758L11.3004 11.6117L9.00051 9.41272L1.36911 16.7113ZM15.2309 7.55145L12.5121 6.05409L9.95562 8.50011L12.5121 10.945L15.2309 9.44877C15.9705 9.04009 15.9705 7.96014 15.2309 7.55145Z" fill="white"/>
</svg>
