<svg width="52" height="54" viewBox="0 0 52 54" fill="none" xmlns="http://www.w3.org/2000/svg">
<path d="M25.9999 22.5493C28.2316 22.5493 30.0516 24.4228 30.0516 26.7647C30.0516 28.9951 28.2316 30.8909 25.9999 30.8909C23.7683 30.8909 21.9483 28.9951 21.9483 26.7647C21.9483 24.4228 23.7683 22.5493 25.9999 22.5493ZM15.9683 44.6078C17.3333 45.4554 20.3233 44.1618 23.7683 40.8162C22.6416 39.5002 21.5366 38.0728 20.4966 36.5784C18.7506 36.4064 17.0148 36.1384 15.2966 35.7755C14.1916 40.5485 14.6033 43.8272 15.9683 44.6078ZM17.5066 31.8054L16.8783 30.6679C16.6399 31.3147 16.4016 31.9615 16.2499 32.586C16.8349 32.7198 17.4849 32.8314 18.1566 32.9429L17.5066 31.8054ZM31.6766 30.1103L33.4316 26.7647L31.6766 23.4191C31.0266 22.237 30.3333 21.1887 29.7049 20.1404C28.5349 20.0735 27.2999 20.0735 25.9999 20.0735C24.6999 20.0735 23.4649 20.0735 22.2949 20.1404C21.6666 21.1887 20.9733 22.237 20.3233 23.4191L18.5682 26.7647L20.3233 30.1103C20.9733 31.2924 21.6666 32.3407 22.2949 33.389C23.4649 33.4559 24.6999 33.4559 25.9999 33.4559C27.2999 33.4559 28.5349 33.4559 29.7049 33.389C30.3333 32.3407 31.0266 31.2924 31.6766 30.1103ZM25.9999 15.1221C25.5883 15.6127 25.1549 16.1257 24.7216 16.7279H27.2782C26.8449 16.1257 26.4116 15.6127 25.9999 15.1221ZM25.9999 38.4073C26.4116 37.9167 26.8449 37.4037 27.2782 36.8015H24.7216C25.1549 37.4037 25.5883 37.9167 25.9999 38.4073ZM36.0099 8.92156C34.6666 8.07401 31.6766 9.36764 28.2316 12.7132C29.3582 14.0292 30.4632 15.4566 31.5033 16.951C33.2799 17.1294 35.0349 17.397 36.7033 17.7539C37.8083 12.9809 37.3966 9.7022 36.0099 8.92156ZM34.4932 21.724L35.1216 22.8615C35.3599 22.2147 35.5983 21.5679 35.7499 20.9434C35.1649 20.8096 34.5149 20.698 33.8433 20.5865L34.4932 21.724ZM37.6349 5.99975C40.8199 7.87327 41.1666 12.8024 39.8232 18.5569C45.3266 20.2296 49.2916 22.9953 49.2916 26.7647C49.2916 30.5341 45.3266 33.2997 39.8232 34.9725C41.1666 40.727 40.8199 45.6561 37.6349 47.5296C34.4716 49.4032 30.1599 47.262 25.9999 43.1804C21.8399 47.262 17.5283 49.4032 14.3433 47.5296C11.1799 45.6561 10.8333 40.727 12.1766 34.9725C6.67325 33.2997 2.70825 30.5341 2.70825 26.7647C2.70825 22.9953 6.67325 20.2296 12.1766 18.5569C10.8333 12.8024 11.1799 7.87327 14.3433 5.99975C17.5283 4.12622 21.8399 6.26739 25.9999 10.349C30.1599 6.26739 34.4716 4.12622 37.6349 5.99975ZM37.0066 26.7647C37.7432 28.4375 38.3932 30.1103 38.9349 31.8054C43.4849 30.4002 46.0416 28.3929 46.0416 26.7647C46.0416 25.1365 43.4849 23.1292 38.9349 21.724C38.3932 23.4191 37.7432 25.0919 37.0066 26.7647ZM14.9933 26.7647C14.2566 25.0919 13.6066 23.4191 13.0649 21.724C8.51492 23.1292 5.95825 25.1365 5.95825 26.7647C5.95825 28.3929 8.51492 30.4002 13.0649 31.8054C13.6066 30.1103 14.2566 28.4375 14.9933 26.7647ZM34.4932 31.8054L33.8433 32.9429C34.5149 32.8314 35.1649 32.7198 35.7499 32.586C35.5983 31.9615 35.3599 31.3147 35.1216 30.6679L34.4932 31.8054ZM28.2316 40.8162C31.6766 44.1618 34.6666 45.4554 36.0099 44.6078C37.3966 43.8272 37.8083 40.5485 36.7033 35.7755C35.0349 36.1323 33.2799 36.4 31.5033 36.5784C30.4632 38.0728 29.3582 39.5002 28.2316 40.8162ZM17.5066 21.724L18.1566 20.5865C17.4849 20.698 16.8349 20.8096 16.2499 20.9434C16.4016 21.5679 16.6399 22.2147 16.8783 22.8615L17.5066 21.724ZM23.7683 12.7132C20.3233 9.36764 17.3333 8.07401 15.9683 8.92156C14.6033 9.7022 14.1916 12.9809 15.2966 17.7539C17.0148 17.391 18.7506 17.123 20.4966 16.951C21.5366 15.4566 22.6416 14.0292 23.7683 12.7132Z" fill="#61DBFB"/>
</svg>
